<svg xmlns="http://www.w3.org/2000/svg" width="48" height="48"><path d="M38.5 44.602l-4-4 2.102-2.102 4 4c.597.602.597 1.5 0 2.102-.5.5-1.5.5-2.102 0zm0 0M9.5 44.602l4-4-2.102-2.102-4 4c-.597.602-.597 1.5 0 2.102.5.5 1.5.5 2.102 0zm0 0" fill="#37474f"/><path d="M44 24c0 11.047-8.953 20-20 20S4 35.047 4 24 12.953 4 24 4s20 8.953 20 20zm0 0" fill="#c62828"/><path d="M40 24c0 8.836-7.164 16-16 16S8 32.836 8 24 15.164 8 24 8s16 7.164 16 16zm0 0" fill="#eee"/><path d="M15.098 33.477l-.567-.567 9.192-9.191.566.562zm0 0" fill="#e53935"/><path d="M23 11h2v13h-2zm0 0"/><path d="M31.281 29.652l-1.625 1.63-6.508-6.509 1.63-1.625zm0 0"/><path d="M26 24a1.999 1.999 0 1 1-4 0 1.999 1.999 0 1 1 4 0zm0 0"/><path d="M25 24c0 .55-.45 1-1 1s-1-.45-1-1 .45-1 1-1 1 .45 1 1zm0 0" fill="#c62828"/><path d="M22 1h4v3h-4zm0 0M44.398 16.2c2.5-3.5 2.102-8.4-1-11.5-3.097-3.098-8-3.5-11.5-1zm0 0M3.602 16.2c-2.5-3.5-2.102-8.4 1-11.5 3.097-3.098 8-3.5 11.5-1zm0 0" fill="#37474f"/></svg>